<svg width="744.80677" height="403.55399" xmlns="http://www.w3.org/2000/svg" data-name="Layer 1">
 <g>
  <title>Layer 1</title>
  <polygon id="svg_2" fill="#ffb6b6" points="476.6759948730469,390.65301513671875 466.1889953613281,390.65301513671875 461.20001220703125,350.2019958496094 476.6780090332031,350.2019958496094 476.6759948730469,390.65301513671875 "/>
  <path id="svg_3" fill="#2f2e41" d="m476.39603,387.22766l-11.19724,-4.55447l-0.32062,-0.13156l-6.18225,4.68604a13.16422,13.16422 0 0 0 -13.16199,13.16202l0,0.42749l33.81342,0l0,-13.58951l-2.95132,0z"/>
  <polygon id="svg_4" fill="#ffb6b6" points="607.9949951171875,309.9859924316406 605.6290283203125,320.2030029296875 565.0950012207031,315.9410095214844 568.5859985351562,300.8609924316406 607.9949951171875,309.9859924316406 "/>
  <path id="svg_5" fill="#2f2e41" d="m605.26141,306.60498l-0.6084,2.61029l-0.06183,0.26874l-6.94342,9.87469l-0.21118,0.29471l3.16595,7.07822a13.15527,13.15527 0 0 0 9.85779,15.78662l0.41199,0.09482l7.63019,-32.93784l-13.24109,-3.07025z"/>
  <path id="svg_6" fill="#2f2e41" d="m469.56323,173.23207l57.82843,2.02399l0.40283,-0.58557s4.93268,11.50958 4.93268,21.37494c0,3.28 -2.28119,24.73315 -1.12152,28.79199c0.14423,0.50482 -0.84808,1.74182 -0.52271,4.0925c0.21118,1.5253 1.37646,0.35199 1.64423,2.46634c0.19226,1.51747 -1.85876,2.35519 -1.64423,4.11053c0.23444,1.91772 3.05566,8.12976 3.30963,10.26297c2.70374,22.71175 -1.69647,28.61412 -1.69647,28.61412s49.45807,20.7243 52.5166,21.3533c5.13373,1.05585 8.59967,10.39038 5.75476,12.33176c-1.35468,0.92444 -5.86298,18.14297 -5.86298,18.14297c-0.96204,0.17404 -3.97162,-1.33551 -2.05432,-4.90521c0.35297,-0.65707 -1.75201,1.0152 -2.10181,0.22852c-0.37207,-0.83658 -5.64178,2.83435 -6.06787,1.90576c-3.82629,-8.33899 -51.70099,-19.8949 -57.26819,-25.82886a56.39789,56.39789 0 0 1 -14.86771,-31.86932l-4.76947,-43.80455l-4.37656,19.85541l-3.62131,3.57849l0.99353,8.34372l-0.17142,8.09853l-9.04327,33.7066s-1.35623,62.94788 0.82214,64.9469c1.17975,1.08267 6.18597,14.41815 -3.28842,15.62015l-17.21359,-1.32803s-2.3194,-4.88751 -1.1597,-6.62692s1.09009,-1.26471 -0.32474,-4.11139s-0.83496,-7.67032 -0.83496,-7.67032a568.24957,568.24957 0 0 1 -2.66409,-68.22931c0.86301,-37.40852 6.09219,-80.38365 6.09219,-81.25948a5.7835,5.7835 0 0 0 -0.48163,-2.60861l0,-2.36115l2.22119,-8.36655l4.63867,-20.29422l0.00003,0l0.00003,0z"/>
  <path id="svg_7" fill="#3f3d56" d="m532.57233,186.75926c-14.60138,2.5253 -24.39261,1.56363 -30.41815,-7.39899c-7.86102,-10.00987 -22.15683,1.80954 -34.2186,6.2041l-1.43054,-1.54556l-2.43341,-2.62256l2.23608,-2.5321l-2.23608,-4.88336l1.86615,-6.02609l2.38412,-0.4357l-0.6413,-5.18753l-1.00299,-3.0336l2.94318,-3.2309l2.49921,-8.06491l-1.80042,-16.87802a112.43257,112.43257 0 0 1 13.66351,-66.77197l6.83173,-6.13303l2.8363,-2.54849l3.8064,-7.10309l4.02017,0.46863l10.88474,1.25778l0.37,0.88791l2.67188,6.44534l9.7063,10.4263a14.1925,14.1925 0 0 1 3.73529,11.07196l0,0l-0.2796,2.81161l-0.20551,2.0224l-0.97009,9.73383l-3.95441,39.76559l-0.29596,2.11281l-3.18146,22.86302c5.17096,4.9984 5.48572,3.90787 7.68079,12.7045c0.24664,0.9783 3.1076,3.15686 3.28851,4.11052c0.25476,1.34834 1.64417,11.50958 1.64417,11.50958l0,0.00002z"/>
  <circle id="svg_8" fill="#ffb6b6" r="18.90547" cy="25.47185" cx="502.92591"/>
  <path id="svg_9" fill="#2f2e41" d="m522.70532,11.24028a9.74774,9.74774 0 0 0 -10.03345,-2.69153a12.75229,12.75229 0 0 0 -22.39172,-3.23801a3.96537,3.96537 0 0 0 -3.88092,0.35663a8.17644,8.17644 0 0 0 -2.612,3.082a18.35065,18.35065 0 0 0 1.03009,18.81616c-0.73978,-1.4939 1.34039,1.07901 3.36786,0.40494c1.74155,-0.45645 8.89517,-5.04349 10.68048,-4.81158c1.78506,0.2319 2.36426,-1.20767 4.1106,-1.64423c1.71039,-0.54706 6.07675,6.52383 6.95187,11.20248c0.16574,0.88666 0.56848,1.98825 1.47025,2.00845c1.11053,0.02493 1.44318,-1.56567 2.37988,-2.16299a1.91154,1.91154 0 0 1 2.539,0.77805a3.11642,3.11642 0 0 1 -0.05334,2.853a9.20973,9.20973 0 0 1 -1.82355,2.32617l0.48505,0.26651a2.53215,2.53215 0 0 0 3.21362,-0.21814c1.8056,0.81461 6.71661,-3.77948 6.0647,-6.55893a30.74934,30.74934 0 0 0 2.21393,-10.70337a14.69076,14.69076 0 0 0 -3.71234,-10.06561z"/>
  <path id="svg_10" fill="#ffb8b8" d="m376.99777,74.94456a6.56717,6.56717 0 0 0 9.99832,-1.19861l40.41162,9.67093l-4.03479,-11.43645l-38.65204,-7.63374a6.60273,6.60273 0 0 0 -7.72311,10.59787z"/>
  <path id="svg_11" fill="#3f3d56" d="m497.73224,67.90981l-3.23706,-1.68839l-14.76691,-0.23215l-0.54059,-0.00549l-0.02951,0.00259l-11.32172,-0.17322l-54.66971,-0.85651l-2.19849,1.91962l-3.37973,-2.00699l-3.83096,-1.9418l-3.51605,1.82669l-3.00745,-0.04712l-0.45807,2.01746l-0.00397,0.00719l-0.01315,0.05838l-2.03635,8.80167l-0.004,0.00723l0.02536,2.07599l3.53662,3.81142l1.87537,1.43742l3.89319,1.72165l2.6955,-3.21045l3.16064,3.28349l12.9592,2.38559c21.66415,5.96838 41.61194,8.8409 56.92117,3.32439l1.92389,-0.0899l15.19626,-0.72311a10.52767,10.52767 0 0 0 9.40921,-6.92923l0.00397,-0.00717a10.427,10.427 0 0 0 0.60406,-4.1496a10.272,10.272 0 0 0 -0.91946,-3.74667a10.59186,10.59186 0 0 0 -4.70975,-5.00687l-3.56152,-1.86612l0,0.00002z"/>
  <path id="svg_12" fill="#f2f2f2" d="m654.14221,378.29465a3.56386,3.56386 0 0 0 2.52393,-6.20139c-0.09326,-0.35632 -0.16022,-0.61212 -0.25342,-0.96851a9.57474,9.57474 0 0 1 17.74854,-0.33643c4.31775,9.84579 9.88141,20.02802 7.2666,30.94269c17.59406,-38.22736 11.03668,-85.50772 -15.81024,-117.8002c-7.37366,-3.97089 -13.38733,-11.09314 -15.01447,-19.41425c3.64197,1.1955 8.14001,-1.80048 5.37408,-5.59836c-1.19696,-1.45029 -2.4054,-2.88882 -3.60236,-4.3391c13.65015,-14.81755 30.30054,8.1075 15.31049,28.07402a114.26474,114.26474 0 0 1 13.02399,19.95053a48.04325,48.04325 0 0 1 2.65564,-22.34155c2.68225,-6.64883 7.77472,-12.27554 12.25159,-18.04401c5.44299,-7.02859 16.81305,-3.91812 17.63867,4.92755c-5.06866,1.71967 -5.65924,9.07059 0.1665,10.02032c-1.36658,16.48352 -11.98175,31.72083 -26.73181,39.08466a114.70947,114.70947 0 0 1 6.72485,47.88519c2.43494,-19.01099 22.7713,-23.8125 36.94434,-31.4942a5.54912,5.54912 0 0 1 8.51599,5.53983a32.05115,32.05115 0 0 0 -5.58948,3.01712a4.84411,4.84411 0 0 0 2.33459,8.82111c-7.01111,17.83936 -25.46155,29.94949 -44.52856,30.06384a117.92916,117.92916 0 0 1 -7.70135,23.20105l-28.2984,0.2695c-0.10449,-0.31348 -0.19885,-0.63727 -0.29315,-0.95081a32.15326,32.15326 0 0 0 7.82581,-0.54111c-7.00812,-8.13904 -12.40747,-12.27411 -8.48328,-23.76709l0.00092,-0.00049l0,0.00003l0,0.00003z"/>
  <path id="svg_13" fill="#f2f2f2" d="m179.15083,302.29465a3.56386,3.56386 0 0 1 -2.52394,-6.20139c0.09329,-0.35632 0.16019,-0.61212 0.25342,-0.96851a9.57474,9.57474 0 0 0 -17.74854,-0.33643c-4.31772,9.84579 -9.88141,20.02802 -7.2666,30.94269c-17.59402,-38.22736 -11.03668,-85.50778 15.81027,-117.80028c7.37363,-3.97083 13.3873,-11.09311 15.01442,-19.41411c-3.642,1.19542 -8.13997,-1.80052 -5.3741,-5.59843c1.19705,-1.45023 2.40546,-2.88878 3.6024,-4.33907c-13.65016,-14.81755 -30.30052,8.10753 -15.31047,28.07402a114.26474,114.26474 0 0 0 -13.02403,19.95056a48.04337,48.04337 0 0 0 -2.65562,-22.34158c-2.68222,-6.64883 -7.77475,-12.27551 -12.2516,-18.04398c-5.44298,-7.02864 -16.81303,-3.91815 -17.63869,4.92755c5.06868,1.71964 5.65929,9.07056 -0.16646,10.02036c1.36653,16.48349 11.98172,31.72083 26.73175,39.08466a114.70963,114.70963 0 0 0 -6.72482,47.88515c-2.43494,-19.01096 -22.77131,-23.8125 -36.94435,-31.49414a5.54912,5.54912 0 0 0 -8.51601,5.53976a32.05115,32.05115 0 0 1 5.58948,3.01715a4.84411,4.84411 0 0 1 -2.33453,8.82108c7.01111,17.83936 25.46155,29.94949 44.52853,30.06384a117.92916,117.92916 0 0 0 7.70134,23.20105l28.29845,0.2695c0.10448,-0.31348 0.19884,-0.63727 0.29314,-0.95081a32.15326,32.15326 0 0 1 -7.82587,-0.54111c7.00818,-8.13901 12.4075,-12.27408 8.48329,-23.76709l-0.0009,-0.00046l0.00003,0l0.00002,0z"/>
  <path id="svg_14" fill="#b39aff" d="m147.26387,297.58789c53.1687,-8.60434 86.0065,79.17676 120.29878,73.65234c62.84726,-10.12469 36.79739,-325.07446 85.9277,-327.75277c41.88031,-2.28314 95.60498,136.69818 139.97467,220.07928c23.32196,43.82764 36,75 36,75s-19.4061,94.16809 -47,57c-39.41937,-53.09668 -69.05881,-239.03931 -90.92099,-230.55301c-33.47552,12.99437 4.2821,172.8674 -76.10739,222.18451c-70.2169,43.07648 -207.37171,-18.1268 -207.45403,-56.4668c-0.03159,-14.72461 20.14609,-30.04678 39.28125,-33.14352l0,-0.00003z"/>
  <path id="svg_15" fill="#b39aff" d="m402.75778,278.6297c-10.83493,2.47925 -25.06323,10.14377 -24.29129,17.20633c0.82742,7.5704 18.90442,14.58517 33.40054,10.1214c11.89252,-3.66208 22.71481,-15.46249 20.24271,-22.26706c-2.552,-7.02454 -18.81619,-7.47147 -29.35196,-5.06067z"/>
  <path id="svg_17" fill="#2f2e41" d="m275.87338,49.45699q-0.32996,3.95999 -0.63992,7.91998a52.441,52.441 0 0 1 -1.29001,9.18002a5.28068,5.28068 0 0 1 -1.05002,2.28998c-0.93997,1.07001 0.80002,7.32996 -0.48999,7.93002a12.74732,12.74732 0 0 1 -4.15997,1.16998c-0.06,-0.43999 -0.14001,-0.88 -0.23004,-1.31c-0.01001,-0.04999 -0.01996,-0.09 -0.02997,-0.13998a16.686,16.686 0 0 0 -2.23004,-5.5a12.8156,12.8156 0 0 1 -0.64996,5.91998c-0.10999,0.31 -0.23999,0.62 -0.38,0.92999c-5.66998,-0.84 -10.57999,-4.67004 -14.44997,-4.62997a140.97046,140.97046 0 0 1 -4.95001,-24.13c-0.25,-2.17999 -0.38994,-4.60001 0.95001,-6.33002c1.19,-1.53998 3.22,-2.09998 5.12,-2.50998a81.10972,81.10972 0 0 1 18.89998,-1.81l-10.99005,-2.56a30.68027,30.68027 0 0 1 9.17999,0.87c2.95001,0.89001 5.73999,2.84 6.88,5.71002c0.87,2.18997 0.69,4.64996 0.51001,6.99997l-0.00003,0.00001z"/>
  <polygon id="svg_18" fill="#ffb6b6" points="213.9770050048828,381.8699951171875 203.3979949951172,381.8699951171875 198.36500549316406,341.06500244140625 213.97900390625,341.0660095214844 213.9770050048828,381.8699951171875 "/>
  <path id="svg_19" fill="#2f2e41" d="m182.04692,397.47922a4.49972,4.49972 0 0 0 4.47116,4.48007l19.91461,0l0.61699,-1.27875l2.81686,-5.8125l1.09093,5.8125l0.24147,1.27875l7.51155,0l-0.1073,-1.28766l-2.00308,-24.0192l-2.62009,-0.16098l-11.32101,-0.67072l-2.7811,-0.16992l0,7.17181c-2.11035,2.2446 -18.6716,10.73087 -17.83099,14.65659z"/>
  <polygon id="svg_20" fill="#ffb6b6" points="337.91400146484375,370.3550109863281 328.7130126953125,375.57598876953125 304.1990051269531,342.5690002441406 317.7790069580078,334.864990234375 337.91400146484375,370.3550109863281 "/>
  <path id="svg_21" fill="#2f2e41" d="m317.8454,399.68793a4.47849,4.47849 0 0 0 6.09863,1.69012l1.04626,-0.59015l0.00897,0l16.26611,-9.23749l-0.51868,-7.86026l4.66791,5.50839l3.44284,-1.95834l3.08508,-1.75269l-2.72745,-3.98828l-11.59824,-16.98151l-2.36078,1.16251l-10.1853,4.99872l-2.48596,1.22513l3.53223,6.23282c-0.72427,3.00458 -10.93649,18.54639 -8.2717,21.55103l0.00003,0l0.00003,0z"/>
  <path id="svg_22" fill="#2f2e41" d="m266.47641,181.57063c12.39139,0.44522 10.48862,29.802 14.35684,55.33582c3.45111,22.78041 13.54568,42.01869 10.16974,42.83617l33.41339,62.27078c-13.0658,12.13589 -28.39731,20.18338 -47.55908,21.31876c-20.7944,-19.10803 -26.49664,-63.07953 -31.27101,-108.5797l-5.21188,39.95732l6.94911,63.41058l-30.74141,7.43427l-21.26312,-1.5188c-18.02185,-72.69318 16.07393,-154.9037 30.75272,-186.13835l40.40471,3.67316l0,0z"/>
  <path id="svg_23" fill="#e6e6e6" d="m279.62192,166.38194l5.62894,-16.88669l4.0206,-5.62889l1.60825,-16.08254c0,-43.42288 -9.68567,-36.19208 -9.68567,-36.19208l-12.63403,-15.27206l-14.3735,-0.44919l-11.35855,-0.35501l-9.4433,15.68051l0,0a25.27857,25.27857 0 0 0 -16.40982,19.06012l-2.61346,13.57962l9.77586,29.68011l-0.43121,-2.20547c-4.60187,8.49542 -3.43121,9.77328 0.37935,16.1519l0.18942,2.30324a9.93784,9.93784 0 0 0 7.53253,8.81033c40.71445,10.1467 44.94556,27.89636 50.17975,20.56848c1.21643,-1.70294 -3.94525,-22.02573 -2.185,-21.8497c4.823,0.48236 -0.18015,-10.91269 -0.18015,-10.91269l0,0.00002z"/>
  <path id="svg_24" fill="#ffb6b6" d="m307.48352,229.23079a7.77926,7.77926 0 0 1 0.45996,-11.83871l-10.08777,-37.4388l9.66949,-5.3363l11.65628,44.55426a7.76837,7.76837 0 0 1 -11.69797,10.05957l0,0l0,-0.00002z"/>
  <path id="svg_25" fill="#e6e6e6" d="m279.70596,90.49937s17.95328,5.46719 19.53281,15.01236s4.3389,17.96585 3.62573,21.87057s8.19272,30.03735 6.45691,33.04324s2.93307,3.65692 1.32111,8.5842s-2.51083,5.94986 -1.48825,6.84869s5.43369,20.43848 5.43369,20.43848l-13.4505,3.90759l-24.77322,-61.38452l3.3418,-48.32063l-0.00003,0.00002l-0.00003,0z"/>
  <path id="svg_26" fill="#ffb6b6" d="m208.97969,229.23079a7.77926,7.77926 0 0 0 -0.45993,-11.83871l10.08777,-37.4388l-9.66953,-5.33627l-11.65628,44.55426a7.76837,7.76837 0 0 0 11.698,10.05957l-0.00003,-0.00003l0,-0.00002z"/>
  <path id="svg_27" fill="#e6e6e6" d="m236.75725,90.49937s-17.95328,5.46719 -19.53281,15.01236s-4.3389,17.96585 -3.6257,21.87057s-8.19269,30.03735 -6.45694,33.04324s-2.93304,3.65692 -1.32108,8.5842s2.51082,5.94986 1.48825,6.84869s-5.4337,20.43848 -5.4337,20.43848l13.4505,3.90759l24.77321,-61.38452l-3.34177,-48.32063l0.00002,0.00002l0.00002,0z"/>
  <circle id="svg_28" fill="#ffb6b6" r="22.37992" cy="51.03434" cx="251.45745"/>
  <path id="svg_29" fill="#2f2e41" d="m274.16342,86.52974c-8.44003,-7.505 5.94998,-28.94156 -5.29004,-43.24774l-1.35001,-1.01047a9.53062,9.53062 0 0 1 -4.67996,4.3259a20.34143,20.34143 0 0 0 -2.09,-5.57489a16.26519,16.26519 0 0 1 -0.57001,6.43781c-0.62997,0.07944 -1.08002,-0.01135 -1.23999,-0.2952c0.20001,1.73715 -5.11003,2.60007 -4.00003,-0.10223a0.5982,0.5982 0 0 1 0.03,-0.07947c-1.37001,2.759 -4.19,4.04205 -6.63998,5.57489c-2.45,1.52142 -4.93999,4.0647 -4.7,7.22119c0.2,2.55466 2.14998,4.46213 4.11005,5.7338c1.95999,1.28299 4.16,2.28217 5.57997,4.26913c2.38997,3.3381 1.82999,8.23172 0.62,12.29651a4.28535,4.28535 0 0 1 -2.95999,2.6568a20.46822,20.46822 0 0 0 -2.23001,-6.24475a16.40545,16.40545 0 0 1 -0.64999,6.72168a10.77427,10.77427 0 0 1 -7.93999,-2.9975l1.51001,6.69888c-2.43002,-0.51089 -4.87999,0.06812 -7.35002,0.51096a21.884,21.884 0 0 0 -0.31,-2.25946a20.31078,20.31078 0 0 0 -2.26001,-6.40372a16.3693,16.3693 0 0 1 -1.16998,8.14091c-0.12003,0.29514 -0.25,0.59036 -0.39,0.87421c-3.8,-0.27249 -7.59001,-2.48654 -6.87001,-8.24307a11.33772,11.33772 0 0 1 2.23999,-5.06387c1.95999,-2.74773 -8.03,-5.68842 -7.41998,-9.00378c0.91,-4.91635 10.02,-9.26501 9.3,-14.22672c-0.63997,-4.49625 -0.51454,-14.64566 1.95999,-18.1438c3.575,-5.05374 -0.39073,-15.50858 25.02002,-9.5715c9.45314,2.20868 12.73,-7.06436 26.98,21.25275c2.44312,4.85489 -6.43994,3.18591 -1.22,13.59299s-9.73001,18.65472 -6.01999,26.15976l-0.00003,-0.00002l0,0.00001z"/>
  <path id="svg_31" fill="#ffb8b8" d="m449.95352,188.9388a6.56717,6.56717 0 0 0 3.57608,-9.41354l27.31345,-31.31464l-12.00327,-1.73065l-24.69235,30.70082a6.60273,6.60273 0 0 0 5.80609,11.75801l0,0.00003l0,-0.00003z"/>
  <path id="svg_32" fill="#3f3d56" d="m461.90836,171.51472l3.88022,-4.28076l3.74432,-0.32211l0.255,-0.31876l0.97821,-1.2485l0.37503,-3.47723l2.87558,-0.6747l6.40979,-8.18713l0.979,-1.62929l26.90613,-31.43722l5.48932,-9.14053l0.86267,-1.85742l2.68781,-5.78238l-0.35437,-14.58209a10.48139,10.48139 0 0 0 0.32788,-8.08949a10.64606,10.64606 0 0 0 -0.54333,-1.23328l-0.15167,-0.28352a10.58249,10.58249 0 0 0 -1.40491,-1.94147l-0.00873,-0.01382a10.2564,10.2564 0 0 0 -3.39941,-2.45334a10.4741,10.4741 0 0 0 -3.17523,-0.87979a10.60947,10.60947 0 0 0 -7.18573,1.80659l-3.30215,2.28308l-2.99731,2.08852l-6.86108,12.62986l-0.44974,0.82343l-0.01639,0.0202l-21.12741,38.87067l-6.36853,11.72058l-0.97058,1.78l-0.09021,5.20709l-3.06293,0.57974l-3.6163,2.70789l-0.36343,4.61093l-1.70142,7.435l-0.25928,0.41902l1.58453,0.93927l0.15335,0.08745l0.28912,0.25433l4.03369,3.4626l2.44608,2.10587l0.08075,0.06546l0.6358,0.59882l2.41586,-2.6635l0,-0.00003l0,-0.00003z"/>
  <path id="svg_33" fill="#2f2e41" d="m229.94841,37.75728c0.05026,0.01901 0.09424,0.03799 0.14453,0.05701a2.358,2.358 0 0 0 0.29526,0.10764a8.1332,8.1332 0 0 0 1.99237,0.45786a7.97765,7.97765 0 0 0 0.87399,0.04617a8.228,8.228 0 0 0 1.11957,-0.0726a7.91927,7.91927 0 0 0 1.22061,-0.24844a5.81359,5.81359 0 0 0 0.56015,-0.181a8.57788,8.57788 0 0 0 5.3089,-5.50165l0,-0.00629a3.713,3.713 0 0 0 0.10785,-0.37701a8.51317,8.51317 0 0 0 0.2822,-2.16885l0,-0.0126a8.51342,8.51342 0 0 0 -1.591,-4.97827c-0.62662,-0.88831 -1.35042,-1.03674 -0.9444,-2.05246c1.29526,-3.24014 -4.00406,-5.88879 -7.13254,-4.46408a3.06167,3.06167 0 0 0 -0.33957,-0.01346c-2.10666,-0.00534 -2.888,3.10556 -4.14386,4.85687l0.03635,0.01187a1.61638,1.61638 0 0 1 -0.02054,3.0582q-1.2543,0.40863 -2.53458,0.72189c-2.81506,3.32462 0.41205,13.05106 4.76471,10.75922l0,-0.00002z"/>
  <path id="svg_34" fill="#6c63ff" d="m240.01646,24.03886a15.254,15.254 0 0 1 -8.72563,14.37698c-1.09781,0.49741 -2.05365,-1.13046 -0.94806,-1.63138a13.42036,13.42036 0 0 0 7.78711,-12.75034c-0.0629,-1.21335 1.82385,-1.2049 1.88658,0.00476l0,-0.00003l0,0.00001z"/>
  <path id="svg_1" d="m10.40338,9.77701l21,0l0,21l-21,0l0,-21z" transform="rotate(41.1859 20.9034 20.277)" opacity="undefined" fill="#b39aff"/>
  <ellipse stroke="null" ry="7.5" rx="7.5" id="svg_44" cy="222.27701" cx="597.90338" fill="#b39aff"/>
  <ellipse stroke="null" ry="6.5" rx="6.5" id="svg_16" cy="283.27701" cx="47.90338" fill="#b39aff"/>
  <rect transform="rotate(-32.7352 628.403 134.777)" id="svg_35" height="16" width="16" y="126.77701" x="620.40338" stroke="#070707" fill="none"/>
  <rect stroke="#070707" transform="rotate(-32.7352 541.961 371.811)" id="svg_50" height="13.05588" width="13.05588" y="365.28338" x="535.4332" fill="none"/>
  <rect stroke="#070707" transform="rotate(-32.7352 84.8926 71.927)" id="svg_30" height="7.16763" width="7.16763" y="68.34302" x="81.30874" fill="none"/>
  <path stroke="null" id="svg_36" d="m395.90338,22.77701c-3.03867,0 -5.5,-2.46133 -5.5,-5.5c0,-3.03867 2.46133,-5.5 5.5,-5.5c3.03867,0 5.5,2.46133 5.5,5.5c0,3.03867 -2.46133,5.5 -5.5,5.5z" opacity="undefined" fill="none"/>
  <path stroke="#000000" id="svg_37" d="m79.40338,159.77701l-28,-21" opacity="undefined" fill="none"/>
  <path stroke="#000000" id="svg_38" d="m588.40338,35.77701l10,-17" opacity="undefined" fill="none"/>
  <line transform="rotate(-31.8094 102.403 365.777)" stroke="#000000" id="svg_39" y2="355.77701" x2="106.40338" y1="375.77701" x1="98.40338" fill="none"/>
  <line stroke="#000000" id="svg_40" y2="21.77701" x2="162.40338" y1="8.77701" x1="151.40338" fill="none"/>
  <line transform="rotate(-61.1301 681.903 66.777)" stroke="#000000" id="svg_41" y2="74.77701" x2="675.40338" y1="58.77701" x1="688.40338" fill="none"/>
  <ellipse stroke="#000000" ry="3.5" rx="3.5" id="svg_43" cy="239.27701" cx="295.90338" fill="none"/>
  <line id="svg_45" y2="17.77701" x2="310.40338" y1="3.77701" x1="306.40338" stroke="#000000" fill="none"/>
  <line stroke="#000000" id="svg_46" y2="128.77701" x2="171.40338" y1="132.77701" x1="151.40338" fill="none"/>
  <line id="svg_48" y2="360.77701" x2="373.40338" y1="364.77701" x1="358.40338" stroke="#000000" fill="none"/>
  <line id="svg_49" y2="231.77701" x2="413.40338" y1="226.77701" x1="403.40338" stroke="#000000" fill="none"/>
 </g>

</svg>