<svg id="Layer_1" data-name="Layer 1" xmlns="http://www.w3.org/2000/svg" viewBox="0 0 22.82 31.35"><defs><style>.cls-1{fill:#ff351f;}.cls-2{fill:#fff;}</style></defs><path class="cls-1" d="M36.32,27.32a11.4,11.4,0,0,1-9.19,11.19,11.26,11.26,0,0,1-4.43,0,11.41,11.41,0,0,1-9.2-11.19c0-.25,0-.5,0-.74a11.23,11.23,0,0,1,1.14-4.28L15.43,21h0L24.91,7.38,34.41,21h0l.72,1.26a11.34,11.34,0,0,1,1.15,4.31C36.31,26.82,36.32,27.07,36.32,27.32Z" transform="translate(-13.5 -7.38)"/><path class="cls-2" d="M29.13,33.89a5.91,5.91,0,0,1-2,4.62,11.26,11.26,0,0,1-4.43,0,5.91,5.91,0,0,1-2-4.62c0-.12,0-.24,0-.35a6.39,6.39,0,0,1,.42-2l.28-.63h0l3.5-7.81,3.51,7.82h0l.27.6a6.74,6.74,0,0,1,.43,2.05C29.13,33.65,29.13,33.77,29.13,33.89Z" transform="translate(-13.5 -7.38)"/></svg>