<?xml version="1.0" encoding="utf-8"?>
<!-- Generator: Adobe Illustrator 25.2.0, SVG Export Plug-In . SVG Version: 6.00 Build 0)  -->
<svg version="1.1" id="Layer_1" xmlns="http://www.w3.org/2000/svg" xmlns:xlink="http://www.w3.org/1999/xlink" x="0px" y="0px"
	 viewBox="0 0 2000 2000" style="enable-background:new 0 0 2000 2000;" xml:space="preserve">
<style type="text/css">
	.st0{clip-path:url(#SVGID_2_);}
	.st1{fill:url(#SVGID_3_);}
	.st2{fill:url(#SVGID_4_);}
	.st3{fill:#FFDBC9;}
	.st4{fill:url(#SVGID_5_);}
	.st5{fill:#FFFFFF;}
	.st6{fill:url(#SVGID_6_);}
</style>
<g>
	<defs>
		<circle id="SVGID_1_" cx="1013.31" cy="909.41" r="595.14"/>
	</defs>
	<clipPath id="SVGID_2_">
		<use xlink:href="#SVGID_1_"  style="overflow:visible;"/>
	</clipPath>
	<g class="st0">
		
			<linearGradient id="SVGID_3_" gradientUnits="userSpaceOnUse" x1="310.8108" y1="2266.7241" x2="310.8108" y2="1076.4474" gradientTransform="matrix(1 0 0 -1 702.5 2581)">
			<stop  offset="0" style="stop-color:#1D0024"/>
			<stop  offset="1" style="stop-color:#100014"/>
		</linearGradient>
		<path class="st1" d="M418.17,909.41c0-328.69,266.45-595.14,595.14-595.14c328.68,0,595.14,266.45,595.14,595.14
			c0,328.68-266.46,595.14-595.14,595.14C684.62,1504.55,418.17,1238.1,418.17,909.41z"/>
		
			<linearGradient id="SVGID_4_" gradientUnits="userSpaceOnUse" x1="327.5966" y1="1979.6331" x2="327.5966" y2="1358.1442" gradientTransform="matrix(1 0 0 -1 702.5 2581)">
			<stop  offset="0" style="stop-color:#FFD4B3"/>
			<stop  offset="1" style="stop-color:#FFDCC2"/>
		</linearGradient>
		<path class="st2" d="M1136.31,1004.64v47.61c0,63.48,91.25,91.25,91.25,91.25s-105.14,79.36-214.25,79.36
			c-109.11,0-214.25-79.36-214.25-79.36s91.97-27.77,91.25-91.25c-0.72-63.48-0.24-100.77-0.72-209.54
			c-56.86-73.71-53.21-123.17-22.12-157.96c104.17-116.55,387.86-76.87,387.86-76.87s26.47,285.64-33.73,368.98
			C1195.82,1012.57,1136.31,1004.64,1136.31,1004.64z"/>
		<g>
			<path class="st3" d="M1136.31,1004.64c-87.29-9.92-138.87-47.61-138.87-47.61c32.56,48.18,82.19,82.21,138.87,95.22V1004.64z"/>
		</g>
		
			<linearGradient id="SVGID_5_" gradientUnits="userSpaceOnUse" x1="310.8108" y1="1465.269" x2="310.8108" y2="1063.3245" gradientTransform="matrix(1 0 0 -1 702.5 2581)">
			<stop  offset="0" style="stop-color:#806A6A"/>
			<stop  offset="1" style="stop-color:#665654"/>
		</linearGradient>
		<path class="st4" d="M1429.91,1263.75c37.77,76.8,59.51,253.92,59.51,253.92H537.2c0,0,21.75-177.14,59.51-253.92
			c37.76-76.78,258.29-148,258.29-148c42.5,87.26,275.78,87.26,316.5-0.02C1171.5,1115.73,1392.13,1186.95,1429.91,1263.75z"/>
		<path class="st5" d="M997.44,1417.26c0-3.14,0.93-6.21,2.67-8.81c1.74-2.61,4.22-4.65,7.12-5.84c2.9-1.2,6.09-1.52,9.17-0.9
			c3.08,0.61,5.91,2.12,8.13,4.34c2.22,2.22,3.73,5.05,4.34,8.12c0.61,3.08,0.3,6.27-0.9,9.17c-1.2,2.9-3.24,5.38-5.85,7.12
			c-2.61,1.74-5.68,2.67-8.81,2.67c-4.21,0-8.25-1.67-11.22-4.65C999.11,1425.51,997.44,1421.48,997.44,1417.26z M997.44,1337.91
			c0-3.14,0.93-6.21,2.67-8.82c1.74-2.61,4.22-4.64,7.12-5.84c2.9-1.2,6.09-1.51,9.17-0.9c3.08,0.61,5.91,2.12,8.13,4.34
			c2.22,2.22,3.73,5.05,4.34,8.13c0.61,3.08,0.3,6.27-0.9,9.17c-1.2,2.9-3.24,5.38-5.85,7.12c-2.61,1.74-5.68,2.68-8.81,2.68
			c-4.21,0-8.25-1.67-11.22-4.65C999.11,1346.16,997.44,1342.12,997.44,1337.91z M997.44,1258.56c0-3.14,0.93-6.21,2.67-8.82
			c1.74-2.61,4.22-4.64,7.12-5.84s6.09-1.52,9.17-0.9c3.08,0.61,5.91,2.12,8.13,4.34c2.22,2.22,3.73,5.05,4.34,8.12
			c0.61,3.08,0.3,6.27-0.9,9.17c-1.2,2.9-3.24,5.38-5.85,7.12c-2.61,1.74-5.68,2.67-8.81,2.67c-4.21,0-8.25-1.67-11.22-4.65
			C999.11,1266.81,997.44,1262.77,997.44,1258.56z"/>
		
			<linearGradient id="SVGID_6_" gradientUnits="userSpaceOnUse" x1="342.4857" y1="1671.5863" x2="342.4857" y2="2147.707" gradientTransform="matrix(1 0 0 -1 702.5 2581)">
			<stop  offset="0" style="stop-color:#E6864E"/>
			<stop  offset="1" style="stop-color:#E67240"/>
		</linearGradient>
		<path class="st6" d="M938.54,723.77c-12.62-10.84-27.95-18.13-49.62-6.87c-51.38,26.67-12.49,129.04,33.13,129.04
			c11.9,0,17.82,37.38-35.17,63.48c0-41.66-63.48-144.82-69.04-238.74c-63.88-23.79-48.01-118.96-4.15-118.96
			c-7-87.24,132.7-132.3,186.8-82.24c55.01-65.94,193.88-32.21,202.26,24.99c95.49-50.97,158.25,95.55,68.85,152.43
			c-36.79,23.41-122.85,32.32-247.1,32.32c-18.75,0-29.26,4.66-24.01,27.85C1010.64,752,987.07,780.31,938.54,723.77z"/>
	</g>
</g>
</svg>
